<svg xmlns="http://www.w3.org/2000/svg" viewBox="0 0 960 600" role="img" aria-labelledby="title desc">
  <title id="title">貪心 cover</title>
  <desc id="desc">An isometric four-tile board with a player centered on the lower-left tile.</desc>
  <rect width="960" height="600" fill="#16130f"/>
  <g stroke="#fff7e8" stroke-opacity="0.05" stroke-width="2">
    <path d="M-120 600 480 0M0 600 600 0M120 600 720 0M240 600 840 0M360 600 960 0M480 600 1080 0"/>
  </g>
  <g transform="translate(480 318)">
    <g>
      <path d="M0-58 116 0 0 58-116 0Z" fill="#5f774d" stroke="#fff7e8" stroke-opacity=".38" stroke-width="4"/>
      <path d="M-116 0 0 58 0 92-116 34Z" fill="#3d3328"/>
      <path d="M116 0 0 58 0 92 116 34Z" fill="#2d2821"/>
    </g>
    <g transform="translate(116 58)">
      <path d="M0-58 116 0 0 58-116 0Z" fill="#4d6848" stroke="#fff7e8" stroke-opacity=".32" stroke-width="4"/>
      <path d="M-116 0 0 58 0 92-116 34Z" fill="#3d3328"/>
      <path d="M116 0 0 58 0 92 116 34Z" fill="#2d2821"/>
    </g>
    <g transform="translate(-116 58)">
      <path d="M0-58 116 0 0 58-116 0Z" fill="#5f774d" stroke="#f2b84b" stroke-width="7"/>
      <path d="M-116 0 0 58 0 92-116 34Z" fill="#3d3328"/>
      <path d="M116 0 0 58 0 92 116 34Z" fill="#2d2821"/>
    </g>
    <g transform="translate(0 116)">
      <path d="M0-58 116 0 0 58-116 0Z" fill="#4d6848" stroke="#fff7e8" stroke-opacity=".32" stroke-width="4"/>
      <path d="M-116 0 0 58 0 92-116 34Z" fill="#3d3328"/>
      <path d="M116 0 0 58 0 92 116 34Z" fill="#2d2821"/>
    </g>
    <ellipse cx="-116" cy="82" rx="34" ry="13" fill="#000" opacity=".3"/>
    <circle cx="-116" cy="22" r="36" fill="#dc5f48" stroke="#fff7e8" stroke-width="7"/>
    <circle cx="-104" cy="11" r="6" fill="#fff7e8"/>
    <path d="M116-24 139-7 130 22 102 22 93-7Z" fill="#f2b84b" stroke="#fff7e8" stroke-width="5"/>
  </g>
  <text x="56" y="98" fill="#fff7e8" font-family="Inter, 'Noto Sans TC', Arial, sans-serif" font-size="72" font-weight="900">貪心</text>
  <text x="60" y="145" fill="#cab89e" font-family="Inter, 'Noto Sans TC', Arial, sans-serif" font-size="25" font-weight="700">Centered on the lower-left tile</text>
</svg>
